<?xml version="1.0" encoding="UTF-8"?>
<svg id="Capa_2" data-name="Capa 2" xmlns="http://www.w3.org/2000/svg" viewBox="0 0 147.58 109">
  <defs>
    <style>
      .cls-1 {
        fill: #00ffec;
      }
    </style>
  </defs>
  <g id="Capa_1-2" data-name="Capa 1">
    <g>
      <path class="cls-1" d="m0,109V1.02h18.78v5.7H6.1v96.59h12.68v5.7H0Z"/>
      <path class="cls-1" d="m147.58,0v107.98h-18.78v-5.7h12.68V5.7h-12.68V0h18.78Z"/>
      <g>
        <g>
          <g>
            <path class="cls-1" d="m55.15,28.46c8.25,0,13.43,3.04,13.43,8.17,0,5.45-2.91,7.53-13.43,8.97-14.91,2.03-26.9,3.93-32.73,12.77h37.99c4.52-1.03,7.06-2.06,8.65-3.64l-.07,3.64h21.1v-14.86c0-19.87-8.74-31.08-33.98-31.08s-34.63,11.38-34.95,27.72h19.58c.97-7.05,4.85-11.7,14.4-11.7Z"/>
            <path class="cls-1" d="m62.15,79.84c-3.27,2.53-7.54,4.08-12.34,4.08-4.51,0-7.56-1.37-9.07-4.08h-22.02c1.11,11.36,9.56,18.98,26.4,18.98,10.68,0,19.09-3.68,24.11-9.13.16,2.4.65,5.13,1.29,7.05h19.58v-16.9h-27.94Z"/>
          </g>
          <g>
            <rect class="cls-1" x="102.04" y="4.96" width="21.03" height="14.74"/>
            <rect class="cls-1" x="102.04" y="23.04" width="21.03" height="34.6"/>
            <rect class="cls-1" x="102.04" y="80.12" width="21.03" height="17.01"/>
          </g>
        </g>
        <g>
          <path class="cls-1" d="m20.96,68.28c-.13-.68-.43-1.22-.9-1.63-.47-.41-1.11-.61-1.92-.61-1.01,0-1.79.36-2.33,1.09-.54.73-.82,1.8-.82,3.2s.27,2.5.82,3.25c.54.74,1.32,1.11,2.33,1.11.77,0,1.4-.18,1.88-.55.48-.36.79-.9.94-1.6h3.5c-.08.8-.28,1.52-.6,2.16-.32.64-.75,1.19-1.29,1.65s-1.18.8-1.92,1.05c-.74.24-1.57.37-2.5.37-1.11,0-2.09-.16-2.95-.5-.86-.33-1.59-.81-2.17-1.44-.59-.63-1.04-1.41-1.34-2.33-.31-.92-.46-1.98-.46-3.17s.15-2.22.46-3.14c.3-.92.75-1.69,1.34-2.31s1.32-1.1,2.18-1.43c.86-.33,1.85-.49,2.95-.49.93,0,1.78.12,2.53.37.75.25,1.39.6,1.92,1.07s.96,1.02,1.27,1.68c.32.66.51,1.39.59,2.19h-3.5Z"/>
          <path class="cls-1" d="m30,63.28h3.63v2.26h.23c.09-.35.25-.68.48-.98.22-.3.49-.57.81-.79s.68-.4,1.07-.53c.4-.13.82-.19,1.28-.19.26,0,.52.02.8.05.28.03.5.07.66.13v3.41c-.08-.03-.18-.05-.32-.08-.14-.03-.29-.06-.45-.08-.16-.02-.33-.04-.51-.05-.18-.01-.34-.02-.49-.02-.51,0-.98.07-1.4.22s-.78.36-1.09.64c-.3.28-.54.61-.71,1.01-.17.39-.25.84-.25,1.34v7.85h-3.74v-14.18Z"/>
          <path class="cls-1" d="m56.74,73.42c-.15.67-.4,1.27-.76,1.81-.36.54-.82.99-1.38,1.37s-1.2.67-1.93.87c-.73.2-1.53.3-2.4.3-1.08,0-2.04-.16-2.89-.5-.85-.33-1.57-.81-2.16-1.44-.59-.63-1.04-1.4-1.35-2.31s-.46-1.94-.46-3.09.16-2.2.47-3.12c.31-.92.76-1.7,1.36-2.35s1.31-1.14,2.15-1.49c.84-.35,1.79-.52,2.84-.52s1.98.16,2.8.49,1.52.79,2.09,1.41c.57.61,1,1.36,1.3,2.25.3.89.45,1.89.45,3.01v1.14h-9.73v.19c0,.53.09,1.01.25,1.43.16.42.38.78.66,1.07.28.3.61.52,1.01.68.39.16.84.24,1.32.24.75,0,1.36-.13,1.86-.38.49-.25.84-.62,1.03-1.09h3.48Zm-6.52-7.58c-.44,0-.84.07-1.2.22s-.68.35-.94.62c-.27.27-.49.59-.65.96-.16.37-.26.79-.3,1.25h6.04c-.04-.94-.33-1.69-.85-2.23-.52-.54-1.23-.82-2.11-.82Z"/>
          <path class="cls-1" d="m66.43,77.67c-.69,0-1.31-.1-1.88-.3-.57-.2-1.05-.49-1.47-.86-.41-.37-.73-.82-.96-1.34-.23-.52-.34-1.11-.34-1.76,0-1.29.47-2.3,1.41-3.03.94-.72,2.3-1.14,4.08-1.24l3.43-.21v-1.16c0-.59-.2-1.05-.61-1.37-.41-.32-1-.48-1.78-.48-.68,0-1.23.11-1.67.33s-.73.55-.89.98h-3.45c.06-.65.25-1.24.57-1.77.32-.53.75-.98,1.29-1.35.54-.37,1.18-.66,1.91-.86.73-.2,1.54-.3,2.44-.3s1.77.11,2.5.33c.73.22,1.35.53,1.85.94s.88.91,1.14,1.51c.26.6.39,1.27.39,2.02v9.68h-3.63v-1.85h-.23c-.37.65-.91,1.16-1.64,1.52-.72.36-1.55.55-2.47.55Zm1.23-2.82c.44,0,.84-.06,1.21-.19s.69-.31.96-.54.49-.5.64-.81.23-.64.23-1v-1.04l-2.87.18c-1.59.11-2.39.68-2.39,1.71,0,.53.21.95.62,1.25s.94.45,1.59.45Z"/>
          <path class="cls-1" d="m85.52,59.91v3.51h2.94v2.94h-2.94v6.38c0,.62.15,1.07.44,1.36s.76.44,1.4.44c.25,0,.45,0,.6-.01s.32-.02.5-.04v2.85c-.23.04-.51.08-.84.12-.33.03-.67.05-1.03.05-.87,0-1.6-.07-2.21-.22s-1.11-.38-1.49-.69c-.39-.31-.67-.71-.84-1.2-.18-.49-.26-1.08-.26-1.77v-7.26h-2.21v-2.94h2.21v-3.51h3.74Z"/>
          <path class="cls-1" d="m96.11,61.3c-.33,0-.64-.05-.91-.14s-.51-.22-.7-.39c-.19-.17-.34-.37-.44-.6s-.15-.48-.15-.76.05-.54.15-.77.25-.43.44-.6c.19-.17.43-.3.7-.39.27-.09.58-.13.91-.13s.64.05.91.13c.27.09.5.22.69.39.19.17.34.37.45.6.11.23.16.49.16.77s-.05.53-.16.76c-.11.23-.26.43-.45.6-.19.17-.42.3-.69.39-.27.09-.57.14-.91.14Zm-1.88,1.98h3.74v14.18h-3.74v-14.18Z"/>
          <path class="cls-1" d="m107.19,63.28l2.93,10.57h.23l2.91-10.57h3.95l-4.9,14.18h-4.22l-4.92-14.18h4.02Z"/>
          <path class="cls-1" d="m135.01,73.42c-.15.67-.4,1.27-.76,1.81-.36.54-.82.99-1.38,1.37s-1.2.67-1.93.87c-.73.2-1.53.3-2.4.3-1.08,0-2.04-.16-2.89-.5-.85-.33-1.57-.81-2.16-1.44-.59-.63-1.04-1.4-1.35-2.31s-.46-1.94-.46-3.09.16-2.2.47-3.12c.31-.92.76-1.7,1.36-2.35s1.31-1.14,2.15-1.49c.84-.35,1.79-.52,2.84-.52s1.98.16,2.8.49,1.52.79,2.09,1.41c.57.61,1,1.36,1.3,2.25.3.89.45,1.89.45,3.01v1.14h-9.73v.19c0,.53.09,1.01.25,1.43.16.42.38.78.66,1.07.28.3.61.52,1.01.68.39.16.84.24,1.32.24.75,0,1.36-.13,1.86-.38.49-.25.84-.62,1.03-1.09h3.48Zm-6.52-7.58c-.44,0-.84.07-1.2.22s-.68.35-.94.62c-.27.27-.49.59-.65.96-.16.37-.26.79-.3,1.25h6.04c-.04-.94-.33-1.69-.85-2.23-.52-.54-1.23-.82-2.11-.82Z"/>
        </g>
      </g>
    </g>
  </g>
</svg>